PathFileType	4	(X/Y/Z)	..\data\2014034\dynamic\2014034_C4_04.trc
DataRate	CameraRate	NumFrames	NumMarkers	Units	OrigDataRate	OrigDataStartFrame	OrigNumFrames
100.000000	100.000000	4	52	mm	100.000000	0	180
Frame#	Time	L_IAS			L_IPS			R_IPS			R_IAS			L_FTC			L_FLE			L_FME			L_FAX			L_TTC			L_FAL			L_TAM			L_FCC			L_FM1			L_FM2			L_FM5			R_FTC			R_FLE			R_FME			R_FAX			R_TTC			R_FAL			R_TAM			R_FCC			R_FM1			R_FM2			R_FM5			CV7			TV10			SXS			SJN			L_SIA			L_SRS			L_SAA			L_SAE			L_HLE			L_HME			L_UOA			L_RSP			L_UHE			L_HM2			L_HM5			R_SIA			R_SRS			R_SAA			R_SAE			R_HLE			R_HME			R_UOA			R_RSP			R_UHE			R_HM2			R_HM5			
		X1	Y1	Z1	X2	Y2	Z2	X3	Y3	Z3	X4	Y4	Z4	X5	Y5	Z5	X6	Y6	Z6	X7	Y7	Z7	X8	Y8	Z8	X9	Y9	Z9	X10	Y10	Z10	X11	Y11	Z11	X12	Y12	Z12	X13	Y13	Z13	X14	Y14	Z14	X15	Y15	Z15	X16	Y16	Z16	X17	Y17	Z17	X18	Y18	Z18	X19	Y19	Z19	X20	Y20	Z20	X21	Y21	Z21	X22	Y22	Z22	X23	Y23	Z23	X24	Y24	Z24	X25	Y25	Z25	X26	Y26	Z26	X27	Y27	Z27	X28	Y28	Z28	X29	Y29	Z29	X30	Y30	Z30	X31	Y31	Z31	X32	Y32	Z32	X33	Y33	Z33	X34	Y34	Z34	X35	Y35	Z35	X36	Y36	Z36	X37	Y37	Z37	X38	Y38	Z38	X39	Y39	Z39	X40	Y40	Z40	X41	Y41	Z41	X42	Y42	Z42	X43	Y43	Z43	X44	Y44	Z44	X45	Y45	Z45	X46	Y46	Z46	X47	Y47	Z47	X48	Y48	Z48	X49	Y49	Z49	X50	Y50	Z50	X51	Y51	Z51	X52	Y52	Z52	

1	0	-68.45178222656251	1000.396423339844	-370.6837463378907	-280.5178222656251	1023.343872070313	-278.5183715820313	-279.0396118164063	1036.020629882813	-184.409652709961	-66.58386230468751	1012.507202148438	-89.57131958007814	-147.1524810791016	934.132995605469	-419.1058959960939	14.07670974731446	512.2904052734376	-394.7602539062501	30.88733673095704	501.8321838378907	-245.5865478515626	17.10835647583008	451.6770629882814	-397.4913024902345	102.4306411743164	475.8288879394532	-349.6477050781251	171.264892578125	86.85796356201173	-398.2292480468751	193.9709014892579	108.3420944213867	-305.0381469726563	151.4591064453125	16.64150428771973	-348.5261840820313	341.8710937500001	112.9999618530274	-312.5658874511719	342.4893493652344	123.4247131347657	-372.7374877929688	319.8760375976563	86.98504638671876	-414.0325012207032	-172.3131408691407	944.2089843750002	-42.20974349975587	-267.9536132812501	513.3927001953126	-102.7995376586914	-262.3662719726563	502.4100952148439	-246.0167999267579	-296.4553527832032	460.3855590820314	-102.6485290527344	-240.6531829833985	427.9398803710939	-165.7984619140625	-456.2784729003907	90.92451477050783	-126.2838592529297	-432.734588623047	97.10446929931643	-225.5785217285157	-516.0039672851564	48.93361282348634	-176.5531311035157	-301.3089599609376	12.75782871246338	-216.0760650634766	-289.3410949707032	32.53096771240235	-152.2125091552735	-336.1516723632813	14.4363431930542	-100.4834747314453	-190.3817291259766	1553.44482421875	-235.9715576171876	-297.7625122070313	1288.215087890625	-225.5612487792969	-13.65416526794434	1245.103759765625	-253.5107421875001	-70.11196899414064	1450.685791015625	-240.0834503173829	-315.3505859375001	1319.19189453125	-323.8802795410157	-258.1373291015626	1478.990966796875	-337.9539489746094	-207.2791748046876	1479.300903320313	-421.5874633789064	-142.2247467041016	1461.648193359375	-452.1693420410157	-283.0083312988282	1143.444580078125	-491.1860656738282	-308.4376525878907	1147.328857421875	-395.0750122070314	-327.3393249511719	1133.937622070313	-453.2306518554689	-261.9988098144532	860.6873168945315	-447.8926391601564	-314.4758300781251	878.6231689453127	-514.1760864257814	-260.1762695312501	751.0413818359376	-450.4872436523439	-354.7953491210938	788.4107055664065	-501.8664550781251	-290.7437744140626	1320.49560546875	-117.6992111206055	-238.7648925781251	1474.817993164063	-123.4218215942383	-182.4529571533203	1475.553466796875	-51.71723556518556	-125.3945236206055	1471.436889648438	-31.85289573669434	-121.5181198120117	1133.01611328125	49.09681701660158	-131.4665222167969	1102.965698242188	-41.77367019653321	-147.226547241211	1090.377075195313	13.29743003845215	111.8191909790039	955.6050415039065	53.52904891967775	50.62439346313478	914.066345214844	88.92966461181642	184.1707153320313	894.6897583007815	76.71621704101564	94.1125946044922	826.951354980469	82.86814117431642	
2	0.01	-54.36652755737306	998.9146728515627	-371.4585876464844	-266.6352539062501	1022.629577636719	-279.9271240234376	-265.2434387207032	1035.720458984375	-185.8803863525391	-53.35159301757814	1011.640197753906	-90.07614898681642	-133.3104095458985	932.9536132812502	-419.9733886718751	26.93859481811524	511.0153198242189	-394.189666748047	44.55283737182618	501.4974060058595	-245.1418609619141	29.89412307739259	450.2218627929689	-396.607879638672	115.3007278442383	475.0227050781251	-349.2612304687501	183.9518280029297	85.8040008544922	-396.0038146972657	206.6468658447266	107.5146789550782	-302.8279724121094	163.7692565917969	16.30443382263184	-346.0337829589844	354.5523071289063	111.2472915649414	-310.0154113769532	355.1368408203126	121.1494750976563	-370.2218933105469	332.4115600585938	84.81400299072267	-411.2839355468751	-159.490463256836	943.9417724609377	-43.06145858764649	-257.7406005859376	513.6862182617189	-102.6512222290039	-251.2518310546876	502.0962219238282	-245.8010406494141	-287.0527954101563	461.0103149414064	-102.3983383178711	-231.4009094238282	427.3697509765626	-165.1669921875	-454.2669982910157	94.3217010498047	-124.8560409545899	-430.626678466797	100.5840454101563	-224.3196563720704	-515.0778808593751	54.08046722412111	-175.2207946777344	-301.1780395507813	12.82636070251465	-215.7264404296876	-289.0506896972657	32.5610580444336	-151.7907257080078	-335.7494201660157	14.18872737884522	-100.1483688354492	-177.0795288085938	1552.568237304688	-238.8156433105469	-284.0251464843751	1287.230834960938	-227.5013885498047	0.2192192375659943	1244.4423828125	-254.8325805664063	-56.63399124145509	1450.069580078125	-242.1358947753907	-301.2444458007813	1317.753295898438	-326.2559509277344	-244.2360992431641	1477.56591796875	-340.8422241210938	-193.0211181640626	1477.656494140625	-424.4126892089845	-127.947494506836	1459.94482421875	-454.731414794922	-270.3829650878907	1142.220825195313	-492.3899230957032	-295.8217468261719	1146.684814453125	-396.3406677246095	-314.6579589843751	1133.269653320313	-454.4400329589845	-252.0725250244141	859.4622192382815	-448.3670959472657	-304.4550476074219	877.6987915039065	-514.6640014648439	-251.4109802246094	749.7341918945314	-450.5958862304689	-345.7174072265626	787.978454589844	-501.9737854003907	-277.3959655761719	1319.643310546875	-119.9181365966797	-225.7513427734376	1474.11474609375	-126.0928497314453	-169.6873779296875	1475.27197265625	-54.24848556518556	-112.6357498168946	1471.472045898438	-34.18891143798829	-108.6656723022461	1133.057250976563	46.99130630493165	-117.951644897461	1103.071044921875	-43.9306755065918	-133.7847900390625	1090.1103515625	10.85519027709961	126.3825073242188	957.8704833984377	52.61908340454103	65.54998016357423	915.8582763671877	87.70309448242189	199.5390625000001	898.3463134765627	76.85119628906251	110.2553329467774	829.437194824219	82.13384246826173	
3	0.02	-40.14570617675782	997.7272949218752	-372.3142395019532	-252.6084289550782	1022.220703125	-281.2953491210938	-251.2897186279297	1035.636596679688	-187.2907104492188	-39.91559982299805	1010.956604003906	-90.66643524169923	-119.3560638427735	932.2001953125002	-420.8445129394532	40.32553482055665	510.1839599609376	-393.7239990234376	58.78365325927736	501.6336669921876	-244.9047241210938	42.92452621459962	449.1719055175782	-395.845184326172	128.4313659667969	474.2283630371095	-348.9208374023438	194.3655700683594	84.30228424072267	-393.8330383300782	216.8609771728516	105.9227828979492	-300.6036376953126	173.0919036865235	15.81371402740479	-343.7570190429688	364.8103332519532	107.6495895385742	-307.0976562500001	365.4848937988282	117.0566711425782	-367.2879333496094	342.5262451171876	81.05914306640626	-408.2353820800782	-146.4398345947266	943.8060302734377	-43.9613380432129	-246.8513336181641	514.0399780273439	-102.4449996948242	-239.6275634765626	501.7907714843751	-245.5492248535157	-277.0126037597657	461.6934509277345	-102.0335998535157	-221.5326232910157	426.7834472656251	-164.4201812744141	-451.922088623047	98.0549011230469	-123.2496185302735	-428.1221008300782	104.3571395874024	-222.8284759521485	-513.8543701171876	59.74950408935548	-173.7287902832032	-301.0499267578126	12.8341064453125	-215.356430053711	-288.7533569335938	32.54272079467774	-151.3580017089844	-335.2917785644532	13.86215972900391	-99.7835388183594	-163.5467376708985	1551.952392578125	-241.8409271240235	-270.1057128906251	1286.534057617188	-229.5529937744141	14.22312259674073	1243.985595703125	-256.2628479003907	-42.94956970214844	1449.686157226563	-244.3637847900391	-286.9506835937501	1316.65576171875	-328.8019714355469	-230.1021423339844	1476.430053710938	-343.8972778320313	-178.5394897460938	1476.26806640625	-427.3955688476564	-113.4546279907227	1458.483154296875	-457.424530029297	-257.2393798828126	1141.151489257813	-493.8179321289064	-282.8411865234376	1146.209228515625	-397.8740234375001	-301.5146179199219	1132.741577148438	-455.9329528808595	-241.5534057617188	858.444519042969	-448.9729919433595	-293.7202758789063	876.945251464844	-515.3834838867189	-242.0367279052735	748.6188354492189	-450.770233154297	-335.9188537597657	787.7165527343752	-502.377410888672	-264.0120239257813	1319.12890625	-122.3418655395508	-212.5650787353516	1473.708374023438	-128.9744262695313	-156.8393096923828	1475.28173828125	-56.9738121032715	-99.78577423095706	1471.74755859375	-36.68478775024415	-96.12604522705081	1133.3828125	44.82198715209962	-104.8544158935547	1103.433837890625	-46.12255477905274	-120.7082595825196	1090.149291992188	8.408367156982424	140.3254852294922	960.022399902344	51.52122497558595	79.79542541503908	917.648376464844	86.36467742919923	214.1500854492188	901.7824707031252	76.74576568603517	125.5599670410157	831.8493652343752	81.27796936035158	
4	0.03	-25.78873443603516	996.893493652344	-373.2536010742188	-238.4476165771485	1022.111328125	-282.6096496582032	-237.1909332275391	1035.740356445313	-188.619613647461	-26.26263236999512	1010.489379882813	-91.38161468505861	-105.2664566040039	931.891784667969	-421.7199707031251	54.17009353637697	509.7937622070314	-393.3649902343751	73.42910003662111	502.1785583496095	-244.8472747802735	56.19139862060548	448.5424194335939	-395.2192993164064	141.7896423339844	473.4796142578126	-348.5944213867188	202.8337860107422	82.46092224121095	-391.8159179687501	224.9541778564454	103.6879043579102	-298.4607238769532	179.8145141601563	15.23342800140381	-341.7990112304688	372.9566955566407	102.4052124023438	-303.9270019531251	373.8403930664063	111.3754272460938	-364.0515747070313	350.5518493652344	75.93796539306642	-405.0276184082032	-133.1424407958985	943.7761230468752	-44.89741134643555	-235.221420288086	514.4309082031251	-102.1759185791016	-227.4387359619141	501.4667053222657	-245.2566528320313	-266.2849731445313	462.4201660156251	-101.54833984375	-210.9906311035157	426.1513061523439	-163.5360717773438	-449.1887817382814	102.1557540893555	-121.511833190918	-425.1307678222657	108.4165191650391	-221.1346130371094	-512.2292480468751	65.9849319458008	-172.1425933837891	-300.9588928222657	12.78938674926758	-214.9922027587891	-288.4875183105469	32.4581413269043	-150.946517944336	-334.8121032714844	13.48491382598877	-99.4208679199219	-149.7729644775391	1551.599853515625	-245.0376586914063	-256.0137329101563	1286.13525390625	-231.7064819335938	28.34937477111817	1243.724731445313	-257.8146972656251	-29.05084037780762	1449.529907226563	-246.7662200927735	-272.4789428710938	1315.916137695313	-331.5026855468751	-215.7289581298829	1475.59033203125	-347.1039123535157	-163.8357543945313	1475.145141601563	-430.5203552246095	-98.74603271484378	1457.272583007813	-460.2386779785157	-243.5875854492188	1140.244506835938	-495.459442138672	-269.4832763671876	1145.904296875	-399.657440185547	-287.9180297851563	1132.356079101563	-457.6882934570314	-230.4192657470704	857.6362915039065	-449.7142944335939	-282.2634582519532	876.3623657226565	-516.3284912109376	-232.0272827148438	747.7019653320314	-451.0200195312501	-325.3863830566407	787.621765136719	-503.0713806152345	-250.5826263427735	1318.966674804688	-124.9534988403321	-199.1834716796876	1473.61279296875	-132.0473175048828	-143.8626403808594	1475.585815429688	-59.88005828857423	-86.80136108398439	1472.260864257813	-39.33964157104493	-83.88230895996095	1134.003173828125	42.61783599853516	-92.16754150390626	1104.041137695313	-48.32191848754884	-107.9996719360352	1090.501708984375	5.995421409606934	153.6497192382813	962.0451660156252	50.24365615844728	93.36560058593751	919.4228515625002	84.93794250488283	228.0092010498047	904.961608886719	76.37234497070314	140.0272979736328	834.1525878906252	80.31379699707033	
